<svg width="1920" height="1080" viewBox="0 0 1920 1080" xmlns="http://www.w3.org/2000/svg"><rect width="1920" height="1080" fill="#df6688"/><path d="M 0,1080 C 0,1080 0,216 0,216 C 131.3205741626794,187.92344497607655 262.6411483253588,159.8468899521531 402,171 C 541.3588516746412,182.1531100478469 688.755980861244,232.53588516746413 800,240 C 911.244019138756,247.46411483253587 986.3349282296649,212.00956937799046 1120,204 C 1253.665071770335,195.99043062200954 1445.9043062200958,215.42583732057415 1589,222 C 1732.0956937799042,228.57416267942585 1826.047846889952,222.28708133971293 1920,216 C 1920,216 1920,1080 1920,1080 Z" fill="#3d1053" opacity="0.12"/><path d="M 0,1080 C 0,1080 0,432 0,432 C 104.9856459330143,471.74162679425837 209.9712918660286,511.48325358851673 358,509 C 506.0287081339714,506.51674641148327 697.1004784688997,461.8086124401913 827,449 C 956.8995215311003,436.1913875598087 1025.626794258373,455.2822966507177 1128,448 C 1230.373205741627,440.7177033492823 1366.3923444976076,407.06220095693783 1504,400 C 1641.6076555023924,392.93779904306217 1780.8038277511962,412.46889952153106 1920,432 C 1920,432 1920,1080 1920,1080 Z" fill="#3d1053" opacity="0.24"/><path d="M 0,1080 C 0,1080 0,648 0,648 C 101.68421052631578,640.22009569378 203.36842105263156,632.4401913875598 339,648 C 474.63157894736844,663.5598086124402 644.2105263157895,702.4593301435408 769,715 C 893.7894736842105,727.5406698564592 973.7894736842104,713.7224880382774 1093,690 C 1212.2105263157896,666.2775119617226 1370.6315789473686,632.6507177033493 1515,624 C 1659.3684210526314,615.3492822966507 1789.6842105263158,631.6746411483253 1920,648 C 1920,648 1920,1080 1920,1080 Z" fill="#3d1053" opacity="0.2"/><path d="M 0,1080 C 0,1080 0,864 0,864 C 117.68421052631584,849.3014354066986 235.36842105263167,834.6028708133971 347,826 C 458.6315789473683,817.3971291866029 564.2105263157893,814.88995215311 705,834 C 845.7894736842107,853.11004784689 1021.7894736842106,893.8373205741626 1148,915 C 1274.2105263157894,936.1626794258374 1350.6315789473683,937.7607655502393 1471,926 C 1591.3684210526317,914.2392344497607 1755.6842105263158,889.1196172248804 1920,864 C 1920,864 1920,1080 1920,1080 Z" fill="#3d1053" opacity="0.284"/></svg>