<svg xmlns="http://www.w3.org/2000/svg" version="1.1" xmlns:xlink="http://www.w3.org/1999/xlink" xmlns:svgjs="http://svgjs.dev/svgjs" width="100%" height="100%" viewBox="0 0 1000 600"><rect width="1000" height="600" x="0" y="0" fill="#234e70"/><g><circle r="166.66666666666666" cx="326.24083964029944" cy="348.46300837007084" fill="#ffffff" transform="matrix(0.7833352085866018,0,0,0.7833352085866017,0,27.03667246343926)"/><path d="M280.23330046889896 414.2793511423447L280.23330046889896 307.7011884734384L280.44134484666876 291.23596200423196Q280.44134484666876 280.2987718586219 282.6703917513447 276.8808999381188Q284.92915928141633 273.46302801761567 292.83484563666707 273.46302801761567L292.83484563666707 273.46302801761567Q326.86496171472 273.46302801761567 341.4280681586029 279.22882934437746L341.4280681586029 279.22882934437746Q372.24835669392246 291.23596200423196 372.24835669392246 321.8184855363861L372.24835669392246 321.8184855363861Q372.24835669392246 328.4461849996226 369.5735004083113 336.7976807358085Q366.89864412270015 345.14917647199445 363.8968609577365 349.8450352845117L363.8968609577365 349.8450352845117Q357.4772058722698 359.4745179127119 346.6588982282425 366.7560711346533Q335.87031120961086 374.03762435659473 321.9610585244329 374.03762435659473L321.9610585244329 374.03762435659473Q315.7494478167359 374.03762435659473 315.7494478167359 368.8959561631423L315.7494478167359 368.8959561631423Q315.7494478167359 366.1319380013441 316.1655365722754 363.54624359191996L316.1655365722754 363.54624359191996Q351.91944892327774 353.5006722081803 351.91944892327774 325.4741224600547L351.91944892327774 325.4741224600547Q351.91944892327774 290.16601948998743 304.8419782965215 290.16601948998743L304.8419782965215 290.16601948998743Q302.7020932680326 290.16601948998743 302.0482395093277 291.53316825818877Q301.39438575062275 292.9300376517857 301.39438575062275 296.3479095722888L301.39438575062275 296.3479095722888L301.39438575062275 321.8184855363861L302.0482395093277 404.85791289191434Q302.0482395093277 417.04336930414286 299.2545007221338 420.2531968468762Q296.49048256033564 423.4630243896097 289.6250180939337 423.4630243896097Q282.78927425292744 423.4630243896097 281.51128736091323 421.4420218627034Q280.23330046889896 419.39129871040154 280.23330046889896 414.2793511423447L280.23330046889896 414.2793511423447Z " fill="#14152a" transform="matrix(0.7833352085866018,0,0,0.7833352085866017,0,27.03667246343926)"/><path d="M576.2408307109467 412.68524782410657L576.2408307109467 313.0741367129955L576.4352751553912 297.68524782410657Q576.4352751553912 287.4630256018844 578.5186084887246 284.26858115743994Q580.6297195998357 281.0741367129955 588.0186084887246 281.0741367129955L588.0186084887246 281.0741367129955Q619.8241640442801 281.0741367129955 633.4352751553912 286.4630256018844L633.4352751553912 286.4630256018844Q662.2408307109467 297.68524782410657 662.2408307109467 326.26858115743994L662.2408307109467 326.26858115743994Q662.2408307109467 332.4630256018844 659.7408307109467 340.26858115743994Q657.2408307109467 348.0741367129955 654.4352751553913 352.4630256018844L654.4352751553913 352.4630256018844Q648.4352751553912 361.4630256018844 638.3241640442801 368.26858115743994Q628.2408307109467 375.0741367129955 615.2408307109467 375.0741367129955L615.2408307109467 375.0741367129955Q609.4352751553912 375.0741367129955 609.4352751553912 370.26858115743994L609.4352751553912 370.26858115743994Q609.4352751553912 367.68524782410657 609.8241640442801 365.26858115743994L609.8241640442801 365.26858115743994Q643.2408307109467 355.879692268551 643.2408307109467 329.68524782410657L643.2408307109467 329.68524782410657Q643.2408307109467 296.68524782410657 599.2408307109467 296.68524782410657L599.2408307109467 296.68524782410657Q597.2408307109467 296.68524782410657 596.6297195998357 297.9630256018844Q596.0186084887246 299.26858115743994 596.0186084887246 302.4630256018844L596.0186084887246 302.4630256018844L596.0186084887246 326.26858115743994L596.6297195998357 403.879692268551Q596.6297195998357 415.26858115743994 594.0186084887246 418.26858115743994Q591.4352751553912 421.26858115743994 585.0186084887246 421.26858115743994Q578.6297195998357 421.26858115743994 577.4352751553912 419.379692268551Q576.2408307109467 417.4630256018844 576.2408307109467 412.68524782410657L576.2408307109467 412.68524782410657ZM748.4352751553913 398.4630256018844L748.4352751553913 398.4630256018844L749.4352751553913 362.0741367129955L749.4352751553913 351.68524782410657Q749.4352751553913 343.26858115743994 750.7408307109467 338.9630256018844Q752.0186084887246 334.68524782410657 756.2408307109467 334.68524782410657L756.2408307109467 334.68524782410657Q763.2408307109467 334.68524782410657 766.2408307109467 335.68524782410657L766.2408307109467 335.68524782410657Q767.4352751553913 337.26858115743994 767.4352751553913 346.26858115743994L767.4352751553913 346.26858115743994L768.0186084887246 396.879692268551L768.8241640442802 414.4630256018844Q768.8241640442802 420.879692268551 767.2408307109467 421.0741367129955L767.2408307109467 421.0741367129955Q763.0186084887246 421.68524782410657 759.5186084887246 421.68524782410657Q756.0186084887246 421.68524782410657 754.7408307109467 420.9630256018844Q753.4352751553913 420.26858115743994 753.0186084887246 418.9630256018844Q752.6297195998357 417.68524782410657 752.4352751553913 416.26858115743994Q752.2408307109467 414.879692268551 752.0186084887246 413.4630256018844L752.0186084887246 413.4630256018844Q751.8241640442802 410.26858115743994 751.0186084887246 410.68524782410657L751.0186084887246 410.68524782410657Q748.6297195998357 410.4630256018844 741.4352751553913 416.68524782410657L741.4352751553913 416.68524782410657Q738.6297195998357 419.26858115743994 732.6297195998357 421.379692268551Q726.6297195998357 423.4630256018844 718.0186084887246 423.4630256018844Q709.4352751553913 423.4630256018844 702.7408307109467 419.26858115743994Q696.0186084887246 415.0741367129955 692.8241640442802 407.879692268551L692.8241640442802 407.879692268551Q687.2408307109467 394.68524782410657 687.2408307109467 378.26858115743994L687.2408307109467 378.26858115743994L687.6297195998357 346.4630256018844L687.82416404428 342.879692268551Q687.82416404428 338.4630256018844 689.6297195998357 336.5741367129955Q691.4352751553913 334.68524782410657 697.0186084887246 334.68524782410657Q702.6297195998357 334.68524782410657 704.1297195998357 335.5741367129955Q705.6297195998357 336.4630256018844 705.6297195998357 340.0741367129955L705.6297195998357 340.0741367129955L705.2408307109467 369.26858115743994Q705.2408307109467 392.26858115743994 710.0186084887246 399.879692268551L710.0186084887246 399.879692268551Q712.2408307109467 403.26858115743994 716.5186084887246 405.68524782410657Q720.8241640442802 408.0741367129955 726.82416404428 408.0741367129955Q732.8241640442802 408.0741367129955 740.6297195998357 405.68524782410657Q748.4352751553913 403.26858115743994 748.4352751553913 398.4630256018844ZM805.4352751553913 334.879692268551L815.6297195998357 335.0741367129955L840.6297195998357 334.68524782410657Q864.8241640442802 334.68524782410657 864.8241640442802 339.26858115743994L864.8241640442802 339.26858115743994Q864.8241640442802 341.68524782410657 859.8241640442802 350.379692268551Q854.82416404428 359.0741367129955 847.0186084887246 369.26858115743994Q839.2408307109467 379.4630256018844 836.6297195998357 383.4630256018844L836.6297195998357 383.4630256018844Q828.2408307109467 394.879692268551 820.0186084887246 407.4630256018844L820.0186084887246 407.4630256018844Q821.6297195998357 408.68524782410657 824.0186084887246 408.68524782410657L824.0186084887246 408.68524782410657Q839.8241640442802 408.68524782410657 852.4352751553913 409.0741367129955L852.4352751553913 409.0741367129955L859.2408307109467 408.879692268551Q866.2408307109467 408.879692268551 866.2408307109467 411.879692268551L866.2408307109467 411.879692268551Q866.2408307109467 418.4630256018844 861.4352751553913 420.0741367129955L861.4352751553913 420.0741367129955Q858.4352751553913 421.0741367129955 852.4352751553913 421.0741367129955L852.4352751553913 421.0741367129955L825.0186084887246 421.26858115743994Q790.8241640442802 421.26858115743994 790.8241640442802 418.26858115743994L790.8241640442802 418.26858115743994Q790.8241640442802 416.879692268551 793.2408307109467 413.5741367129955Q795.6297195998357 410.26858115743994 795.8241640442802 409.879692268551L795.8241640442802 409.879692268551Q811.8241640442802 386.4630256018844 834.8241640442802 357.0741367129955L834.8241640442802 357.0741367129955Q835.4352751553913 356.0741367129955 837.0186084887246 354.26858115743994L837.0186084887246 354.26858115743994Q840.4352751553913 350.4630256018844 841.4352751553913 347.879692268551L841.4352751553913 347.879692268551L830.82416404428 347.68524782410657Q830.82416404428 347.68524782410657 803.4352751553913 348.0741367129955L803.4352751553913 348.0741367129955Q797.2408307109467 348.0741367129955 795.4352751553913 347.18524782410657Q793.6297195998357 346.26858115743994 793.6297195998357 343.18524782410657Q793.6297195998357 340.0741367129955 794.1297195998357 338.68524782410657Q794.6297195998357 337.26858115743994 794.9352751553913 336.379692268551Q795.2408307109467 335.4630256018844 797.3241640442802 335.18524782410657Q799.4352751553913 334.879692268551 800.2408307109467 334.879692268551L800.2408307109467 334.879692268551L805.4352751553913 334.879692268551ZM894.0186084887246 334.879692268551L904.2408307109467 335.0741367129955L929.2408307109467 334.68524782410657Q953.4352751553911 334.68524782410657 953.4352751553911 339.26858115743994L953.4352751553911 339.26858115743994Q953.4352751553911 341.68524782410657 948.4352751553913 350.379692268551Q943.4352751553913 359.0741367129955 935.6297195998357 369.26858115743994Q927.82416404428 379.4630256018844 925.2408307109467 383.4630256018844L925.2408307109467 383.4630256018844Q916.82416404428 394.879692268551 908.6297195998357 407.4630256018844L908.6297195998357 407.4630256018844Q910.2408307109467 408.68524782410657 912.6297195998357 408.68524782410657L912.6297195998357 408.68524782410657Q928.4352751553911 408.68524782410657 941.0186084887246 409.0741367129955L941.0186084887246 409.0741367129955L947.8241640442802 408.879692268551Q954.82416404428 408.879692268551 954.82416404428 411.879692268551L954.82416404428 411.879692268551Q954.82416404428 418.4630256018844 950.0186084887246 420.0741367129955L950.0186084887246 420.0741367129955Q947.0186084887246 421.0741367129955 941.0186084887246 421.0741367129955L941.0186084887246 421.0741367129955L913.6297195998357 421.26858115743994Q879.4352751553913 421.26858115743994 879.4352751553913 418.26858115743994L879.4352751553913 418.26858115743994Q879.4352751553913 416.879692268551 881.82416404428 413.5741367129955Q884.2408307109467 410.26858115743994 884.4352751553913 409.879692268551L884.4352751553913 409.879692268551Q900.4352751553913 386.4630256018844 923.4352751553913 357.0741367129955L923.4352751553913 357.0741367129955Q924.0186084887246 356.0741367129955 925.6297195998357 354.26858115743994L925.6297195998357 354.26858115743994Q929.0186084887246 350.4630256018844 930.0186084887246 347.879692268551L930.0186084887246 347.879692268551L919.4352751553911 347.68524782410657Q919.4352751553911 347.68524782410657 892.0186084887246 348.0741367129955L892.0186084887246 348.0741367129955Q885.8241640442802 348.0741367129955 884.0186084887246 347.18524782410657Q882.2408307109467 346.26858115743994 882.2408307109467 343.18524782410657Q882.2408307109467 340.0741367129955 882.7408307109467 338.68524782410657Q883.2408307109467 337.26858115743994 883.5186084887246 336.379692268551Q883.82416404428 335.4630256018844 885.9352751553913 335.18524782410657Q888.0186084887246 334.879692268551 888.8241640442802 334.879692268551L888.8241640442802 334.879692268551L894.0186084887246 334.879692268551ZM977.2408307109467 374.26858115743994L977.2408307109467 353.26858115743994L976.8241640442802 312.4630256018844Q976.8241640442802 308.4630256018844 976.9352751553913 304.76858115743994Q977.0186084887246 301.0741367129955 977.0186084887246 298.26858115743994L977.0186084887246 298.26858115743994L977.0186084887246 288.879692268551Q977.0186084887246 279.879692268551 978.32416404428 276.68524782410657Q979.6297195998357 273.4630256018844 986.1297195998357 273.4630256018844Q992.6297195998357 273.4630256018844 994.2408307109467 274.379692268551Q995.82416404428 275.26858115743994 995.82416404428 278.4630256018844L995.82416404428 278.4630256018844L996.0186084887246 352.26858115743994L996.2408307109467 396.26858115743994Q996.2408307109467 402.26858115743994 999.8241640442802 405.879692268551Q1003.4352751553911 409.4630256018844 1008.0186084887246 409.4630256018844Q1012.6297195998357 409.4630256018844 1017.32416404428 408.379692268551Q1022.0186084887246 407.26858115743994 1023.2408307109467 407.26858115743994L1023.2408307109467 407.26858115743994Q1025.82416404428 407.26858115743994 1025.82416404428 410.4630256018844L1025.82416404428 410.4630256018844Q1025.82416404428 417.26858115743994 1016.4352751553913 420.4630256018844L1016.4352751553913 420.4630256018844Q1009.8241640442802 422.4630256018844 1002.32416404428 422.4630256018844Q994.82416404428 422.4630256018844 990.2408307109467 419.879692268551Q985.6297195998357 417.26858115743994 983.1297195998357 413.4630256018844Q980.6297195998357 409.68524782410657 979.2408307109467 402.68524782410657L979.2408307109467 402.68524782410657Q977.2408307109467 392.879692268551 977.2408307109467 374.26858115743994L977.2408307109467 374.26858115743994ZM1110.0186084887246 371.68524782410657L1110.0186084887246 371.68524782410657Q1110.0186084887246 371.68524782410657 1064.2408307109467 371.879692268551L1064.2408307109467 371.879692268551Q1056.82416404428 371.879692268551 1055.6297195998357 373.0741367129955L1055.6297195998357 373.0741367129955Q1054.6297195998357 374.4630256018844 1054.6297195998357 377.68524782410657L1054.6297195998357 377.68524782410657Q1054.6297195998357 393.26858115743994 1063.5186084887246 401.5741367129955Q1072.435275155391 409.879692268551 1083.82416404428 409.879692268551Q1095.2408307109467 409.879692268551 1101.6297195998357 406.879692268551L1101.6297195998357 406.879692268551Q1101.8241640442802 406.879692268551 1105.6297195998357 404.26858115743994Q1109.435275155391 401.68524782410657 1110.9352751553913 401.68524782410657Q1112.4352751553913 401.68524782410657 1113.2408307109467 402.879692268551Q1114.0186084887246 404.0741367129955 1114.0186084887246 405.26858115743994L1114.0186084887246 405.26858115743994Q1114.0186084887246 412.879692268551 1102.82416404428 418.18524782410657Q1091.6297195998357 423.4630256018844 1076.7408307109467 423.4630256018844Q1061.8241640442802 423.4630256018844 1048.32416404428 411.4630256018844Q1034.8241640442802 399.4630256018844 1034.8241640442802 379.0741367129955Q1034.8241640442802 358.68524782410657 1047.5186084887246 345.4630256018844Q1060.2408307109467 332.26858115743994 1081.6297195998357 332.26858115743994L1081.6297195998357 332.26858115743994Q1097.2408307109467 332.26858115743994 1106.82416404428 341.4630256018844L1106.82416404428 341.4630256018844Q1117.0186084887246 351.0741367129955 1117.0186084887246 364.68524782410657L1117.0186084887246 364.68524782410657Q1117.0186084887246 371.68524782410657 1110.0186084887246 371.68524782410657ZM1058.0186084887246 361.879692268551L1058.0186084887246 361.879692268551Q1096.0186084887246 361.879692268551 1102.0186084887246 361.4630256018844L1102.0186084887246 361.4630256018844Q1101.435275155391 353.4630256018844 1095.9352751553913 348.26858115743994Q1090.435275155391 343.0741367129955 1082.0186084887246 343.0741367129955Q1073.6297195998357 343.0741367129955 1066.3241640442802 348.9630256018844Q1059.0186084887246 354.879692268551 1058.0186084887246 361.879692268551Z " fill="#ffffff" transform="matrix(0.7833352085866018,0,0,0.7833352085866017,0,27.03667246343926)"/></g></svg>